<?xml version="1.0" standalone="no"?>
<!DOCTYPE svg PUBLIC "-//W3C//DTD SVG 20010904//EN"
 "http://www.w3.org/TR/2001/REC-SVG-20010904/DTD/svg10.dtd">
<svg version="1.0" xmlns="http://www.w3.org/2000/svg"
 width="1280.000000pt" height="1280.000000pt" viewBox="0 0 1280.000000 1280.000000"
 preserveAspectRatio="xMidYMid meet">
<metadata>
Created by potrace 1.14, written by Peter Selinger 2001-2017
</metadata>
<g transform="translate(0.000000,1280.000000) scale(0.100000,-0.100000)"
fill="#000000" stroke="none">
<path d="M5216 10855 c-14 -13 -26 -29 -26 -35 0 -7 -9 -23 -20 -37 -15 -19
-20 -41 -20 -84 l0 -59 -60 0 c-33 0 -76 -7 -95 -14 -32 -14 -35 -18 -35 -59
0 -27 10 -63 25 -93 14 -27 30 -65 36 -84 18 -55 150 -222 209 -263 l24 -17
-21 -42 c-16 -31 -22 -37 -22 -22 -2 38 -89 92 -188 114 -47 11 -57 18 -95 70
-24 32 -79 99 -123 149 -44 50 -92 105 -107 123 -33 42 -42 33 -23 -22 8 -24
18 -81 21 -129 7 -125 15 -149 77 -237 30 -43 80 -129 110 -190 31 -60 61
-115 69 -121 7 -6 44 -24 82 -40 l70 -29 0 -263 1 -264 -145 6 c-80 3 -161 10
-180 15 -87 23 -215 34 -388 34 -110 0 -238 6 -311 15 -132 16 -187 12 -254
-16 -40 -17 -123 -32 -249 -46 -32 -4 -58 -11 -58 -16 0 -5 -7 -9 -15 -9 -8 0
-44 -13 -80 -30 -36 -16 -75 -30 -86 -30 -27 0 -75 -25 -124 -65 -22 -18 -114
-79 -205 -135 -91 -57 -181 -115 -200 -130 -19 -15 -53 -36 -75 -48 -53 -27
-75 -52 -74 -88 1 -32 -83 -276 -155 -449 -25 -61 -68 -191 -96 -290 -78 -277
-106 -366 -176 -555 -87 -235 -262 -599 -336 -701 -115 -156 -152 -242 -194
-453 -36 -178 -38 -194 -26 -209 6 -7 12 -53 13 -102 1 -50 8 -126 14 -170 6
-44 8 -82 3 -85 -4 -4 -10 -105 -12 -225 -3 -121 -9 -238 -13 -260 l-8 -40
-85 -3 c-97 -3 -138 -18 -176 -66 l-26 -32 -83 12 c-115 17 -250 79 -425 195
-174 115 -218 150 -339 265 -84 80 -140 149 -182 228 -23 43 -45 55 -66 34
-15 -16 -15 -23 10 -105 15 -48 27 -94 27 -102 0 -70 123 -395 207 -545 260
-463 480 -719 727 -843 38 -19 76 -41 83 -49 8 -8 18 -14 23 -14 5 0 14 -17
20 -38 14 -53 58 -109 98 -124 22 -8 31 -17 27 -28 -28 -90 -71 -438 -56 -453
6 -6 11 -20 12 -31 1 -26 60 -77 98 -85 l29 -6 -49 -210 c-27 -115 -58 -232
-69 -259 -28 -67 -25 -97 11 -142 17 -22 63 -85 101 -142 67 -97 98 -130 306
-318 40 -37 46 -47 44 -78 -2 -31 2 -39 29 -55 18 -11 51 -23 73 -26 23 -4 68
-14 101 -22 61 -16 190 -17 1250 -10 610 4 1242 -9 1325 -27 166 -35 186 -40
205 -51 11 -7 72 -13 140 -14 66 -1 138 -6 160 -11 53 -11 596 -17 613 -6 19
12 198 -3 249 -20 38 -13 45 -13 66 1 32 21 83 24 547 37 439 12 549 13 1733
3 599 -5 832 -3 842 5 7 6 77 13 166 16 85 3 181 10 214 15 110 19 309 61 382
80 40 10 83 19 97 19 13 0 40 7 59 15 43 18 174 20 295 5 146 -19 403 -34 567
-34 128 0 169 4 205 18 36 13 100 19 321 27 251 8 318 13 462 35 46 7 60 17
35 27 -9 4 -7 6 3 6 12 1 20 19 29 63 11 50 11 132 2 447 -17 521 -16 921 1
921 12 0 20 108 21 320 1 88 0 95 -19 96 -11 1 -25 2 -30 3 -7 0 -9 41 -7 109
4 104 -6 162 -28 162 -5 0 -10 -7 -10 -16 0 -9 -38 -54 -84 -100 -47 -46 -87
-92 -91 -103 -5 -18 -85 -71 -107 -71 -5 0 -34 -12 -64 -27 -37 -18 -54 -32
-54 -45 0 -27 -33 -87 -73 -132 l-35 -40 -27 18 c-27 17 -60 27 -209 61 l-79
18 35 31 c19 17 70 58 113 91 68 51 123 96 196 158 8 7 73 60 142 116 169 137
184 164 95 175 -64 9 -188 32 -245 47 l-42 11 90 75 c93 77 111 99 89 113 -7
4 -60 17 -119 28 -58 12 -284 57 -501 102 -217 44 -552 112 -745 151 -192 39
-447 91 -565 115 -619 126 -931 190 -1175 239 -790 160 -768 155 -816 186 -49
31 -78 36 -110 18 -15 -8 -41 -6 -98 5 -43 9 -89 16 -103 16 -20 0 -34 13 -66
63 -23 35 -59 82 -82 105 -39 41 -41 42 -109 42 -43 0 -72 -5 -78 -12 -8 -11
-75 -165 -116 -269 l-15 -36 -75 5 c-105 6 -119 1 -147 -55 -30 -62 -48 -83
-72 -83 -16 0 -19 5 -14 28 3 15 8 50 12 77 3 28 21 111 39 185 19 74 37 155
40 180 4 25 11 50 16 56 18 22 32 206 24 318 -5 61 -8 183 -7 271 l1 159 68
27 c37 14 82 34 98 43 17 9 40 16 52 16 23 0 40 17 28 28 -4 4 -37 10 -73 13
-37 3 -98 14 -137 23 -38 10 -80 19 -91 22 -12 2 -32 13 -45 24 l-24 19 101 1
c87 0 105 3 128 21 36 28 33 34 -17 35 -41 1 -207 59 -207 72 0 4 13 21 29 38
l28 31 167 7 c91 5 179 10 194 13 53 11 309 18 417 12 664 -38 701 -41 1055
-99 146 -23 191 -31 360 -65 69 -13 197 -36 285 -51 88 -15 180 -30 205 -35
25 -4 79 -13 120 -19 41 -6 84 -15 95 -20 11 -4 49 -14 85 -20 87 -17 278 -66
365 -95 73 -24 793 -229 995 -284 115 -30 174 -50 410 -134 415 -148 605 -229
613 -259 4 -15 13 -19 39 -16 l33 3 3 1850 c1 1018 0 1860 -3 1873 -4 17 -12
22 -38 22 -18 0 -41 6 -52 13 -46 31 -206 109 -285 137 -309 113 -425 152
-655 221 -55 17 -133 42 -174 55 -41 14 -100 31 -130 39 -31 8 -111 29 -178
49 -67 19 -143 38 -170 42 -26 4 -63 13 -82 21 -86 36 -585 142 -881 187 -96
15 -195 31 -220 36 -25 4 -76 13 -115 19 -161 24 -395 63 -470 78 -153 30
-310 46 -640 63 -121 6 -289 15 -374 21 -226 13 -508 11 -625 -5 -55 -8 -231
-17 -390 -21 -303 -6 -510 -18 -611 -34 -33 -6 -78 -13 -100 -16 -82 -13 -130
-29 -147 -49 -9 -11 -13 -25 -9 -31 4 -5 6 -31 3 -56 l-4 -45 -31 29 c-18 16
-45 40 -62 53 -32 24 -133 54 -182 54 l-30 0 -6 80 c-8 99 -26 139 -86 190
-45 39 -48 40 -122 40 -67 0 -79 -3 -103 -25z m2698 -225 c327 -22 532 -34
541 -31 6 1 35 5 65 7 40 3 50 2 35 -5 -15 -8 -9 -9 21 -4 24 3 59 0 80 -8 22
-7 48 -13 59 -15 25 -3 376 -60 470 -75 39 -7 77 -13 85 -14 8 -1 26 -5 40 -8
14 -3 44 -9 68 -11 24 -3 47 -8 51 -10 4 -3 37 -8 72 -11 114 -9 159 -17 154
-26 -4 -5 7 -6 22 -3 29 5 333 -51 342 -64 4 -4 17 -8 31 -9 47 -3 110 -16
110 -22 0 -4 17 -8 38 -9 20 -2 42 -8 47 -15 22 -26 91 -48 169 -53 57 -4 128
-21 241 -56 88 -27 178 -54 200 -60 80 -22 200 -60 217 -69 10 -5 23 -9 30 -9
25 0 443 -142 455 -154 4 -3 12 -6 19 -6 8 0 37 -11 66 -25 54 -24 159 -65
168 -65 3 0 -4 8 -15 16 -19 16 -19 16 5 9 32 -9 151 -68 146 -73 -2 -2 -27 8
-55 22 -28 14 -56 26 -62 26 -19 0 57 -48 137 -86 63 -30 77 -41 95 -77 17
-36 18 -39 2 -21 -47 55 -391 176 -998 351 -181 52 -379 107 -440 123 -60 16
-177 49 -260 75 -384 118 -536 148 -1055 205 -52 6 -122 15 -155 20 -33 5
-132 16 -220 24 -319 31 -381 37 -465 46 -47 6 -188 17 -315 25 -126 9 -264
20 -305 26 -117 16 -946 23 -1145 10 -387 -26 -434 -31 -515 -49 -47 -11 -106
-23 -132 -26 -26 -4 -50 -11 -53 -15 -14 -24 136 -28 238 -6 148 31 478 52
957 60 279 5 360 3 570 -15 135 -12 308 -25 385 -30 77 -5 185 -14 240 -19 55
-6 179 -18 275 -26 175 -15 265 -25 415 -45 44 -5 161 -19 260 -30 367 -41
593 -89 941 -200 49 -16 160 -47 245 -69 84 -22 206 -55 269 -74 63 -20 189
-56 280 -82 247 -69 708 -222 735 -245 24 -20 199 -72 231 -68 l34 4 0 -94 c0
-51 -3 -91 -7 -89 -32 18 -158 67 -393 154 -149 55 -574 201 -685 234 -157 49
-331 98 -520 149 -38 10 -104 28 -145 40 -41 11 -100 25 -130 31 -30 6 -98 22
-150 35 -81 21 -212 49 -310 67 -14 3 -81 16 -150 30 -69 14 -170 33 -225 42
-55 9 -125 20 -155 25 -145 24 -309 47 -430 60 -139 15 -147 17 -158 50 -18
50 -102 54 -102 4 0 -27 5 -27 -171 -9 -83 9 -340 26 -529 35 -226 12 -207 10
-255 22 -42 11 -62 13 -160 23 -33 3 -67 9 -75 12 -8 3 -42 7 -74 9 -33 1 -62
7 -65 12 -3 4 -163 8 -356 7 -327 -1 -354 -2 -405 -21 -40 -15 -70 -20 -112
-16 -67 5 -118 -18 -118 -54 0 -35 -22 -44 -124 -51 l-96 -6 0 105 c0 89 3
107 19 125 25 27 83 36 163 28 37 -3 84 -1 113 6 28 6 169 15 315 19 236 6
271 9 322 28 50 19 80 22 220 23 90 1 226 5 303 8 220 12 326 12 479 1z m-461
-520 c47 -18 48 -30 2 -30 -27 0 -35 -4 -35 -19 0 -17 -15 -19 -222 -24 -285
-8 -717 -38 -948 -66 -41 -5 -120 -14 -175 -21 -55 -6 -108 -13 -117 -16 -31
-9 -20 29 20 72 l38 40 230 22 c581 56 1117 74 1207 42z m752 -1 c132 -6 299
-17 370 -24 72 -8 182 -17 245 -20 150 -8 270 -23 443 -55 31 -5 83 -15 115
-20 31 -6 93 -17 137 -25 44 -8 98 -19 120 -24 77 -18 140 -31 195 -42 30 -5
98 -22 150 -36 52 -14 151 -40 220 -58 257 -67 621 -181 628 -197 2 -5 9 -8
16 -8 7 0 34 -14 60 -31 45 -30 46 -32 30 -50 -9 -10 -20 -16 -24 -14 -4 3
-10 -5 -13 -16 -4 -16 -10 -20 -24 -14 -124 52 -694 230 -716 222 -5 -1 19
-11 54 -20 102 -28 448 -138 494 -157 11 -4 55 -21 97 -36 74 -27 76 -29 59
-46 -11 -9 -21 -22 -23 -28 -3 -9 -13 -8 -38 3 -63 26 -104 36 -157 38 -29 1
-53 6 -53 10 0 4 -8 7 -17 7 -10 -1 -45 8 -78 19 -33 11 -91 26 -130 33 -128
23 -254 58 -270 74 -9 9 -31 15 -48 15 -18 -1 -68 8 -113 20 -73 18 -131 31
-274 63 -80 17 -371 68 -517 90 -82 13 -141 26 -140 32 1 6 -18 13 -43 17 -25
3 -65 15 -90 27 -57 26 -246 47 -351 37 -66 -5 -82 -3 -117 15 -23 12 -72 27
-109 33 -38 7 -72 15 -78 18 -15 9 -135 7 -141 -2 -3 -5 -25 -18 -51 -29 -43
-19 -66 -20 -355 -20 -181 0 -317 4 -327 10 -20 10 -35 67 -25 94 5 12 19 16
60 16 37 0 56 5 62 16 12 21 240 22 280 0 26 -13 251 -28 622 -41 110 -3 111
-3 35 5 -146 16 -378 30 -498 30 -118 0 -157 9 -157 34 0 8 -7 20 -17 27 -14
13 -13 15 13 19 35 7 164 4 489 -11z m-2762 -68 c37 -11 91 -31 121 -45 54
-26 157 -53 234 -63 l42 -5 0 -100 0 -99 -115 116 -115 117 -47 -5 c-70 -8
-204 -35 -231 -47 -13 -5 -26 -10 -30 -10 -5 0 3 36 17 80 17 55 30 80 41 80
8 0 45 -9 83 -19z m1770 -18 c-10 -3 -10 -10 -2 -25 11 -20 9 -21 -42 -16 -42
4 -49 3 -37 -6 13 -10 -2 -12 -73 -11 -94 2 -290 -21 -299 -34 -12 -19 -79
-25 -305 -27 -226 -2 -295 -8 -390 -33 -22 -6 -59 -11 -82 -11 -41 0 -43 1
-43 29 0 33 0 33 170 51 52 6 133 15 180 20 376 44 724 62 749 38 10 -11 11
-10 6 5 -6 15 -1 17 41 16 46 -1 47 -2 16 -9 -53 -13 -48 -18 17 -17 42 1 60
5 57 13 -6 16 3 24 28 23 12 0 15 -3 9 -6z m797 -173 c36 -5 144 -12 240 -15
96 -3 265 -17 375 -31 263 -34 245 -29 246 -62 l2 -27 4 29 c5 32 -11 31 156
10 31 -4 57 -11 57 -16 0 -5 5 -6 10 -3 6 3 10 0 10 -7 0 -10 2 -10 8 -1 4 7
16 12 27 12 11 0 34 2 50 5 26 5 27 5 5 -3 -21 -6 -13 -10 48 -20 71 -13 72
-13 73 -44 2 -31 2 -31 6 -4 5 33 22 36 24 5 l2 -23 4 23 c3 17 9 21 23 17 10
-3 44 -11 77 -16 32 -6 70 -13 86 -16 24 -5 27 -10 28 -47 l2 -41 7 40 c4 22
8 33 9 25 1 -10 4 -11 9 -4 7 12 15 11 167 -23 34 -7 41 -13 44 -38 l4 -30 6
26 6 26 65 -16 c84 -21 90 -25 90 -67 0 -19 4 -34 10 -34 5 0 11 -28 13 -62 2
-49 4 -41 5 33 l2 96 96 -28 c53 -15 98 -29 100 -32 2 -2 7 -90 11 -196 3
-105 10 -194 15 -197 4 -3 8 13 8 35 l0 40 48 -15 c102 -33 102 -33 102 -74 0
-34 3 -38 40 -49 30 -9 40 -17 40 -32 0 -12 -5 -19 -12 -16 -7 3 -59 20 -115
39 -60 19 -104 39 -106 48 -4 13 -9 -212 -9 -427 0 -49 -5 -83 -10 -83 -6 0
-5 -7 3 -16 10 -13 10 -17 0 -24 -8 -5 -9 -10 -3 -14 5 -3 10 -22 10 -41 0
-26 -4 -35 -16 -35 -15 -1 -15 -2 1 -11 24 -14 21 -29 -5 -30 l-23 0 23 -11
c12 -6 22 -17 22 -24 0 -10 -14 -9 -62 5 -35 10 -71 22 -80 26 -11 4 -18 3
-18 -4 0 -6 -9 -11 -20 -11 -18 0 -20 8 -23 163 l-3 162 1 -165 c0 -163 0
-165 23 -168 22 -3 22 -5 22 -167 0 -135 3 -164 15 -169 9 -3 15 -18 15 -35 0
-16 -7 -36 -15 -45 -9 -9 -15 -33 -15 -64 l0 -49 -65 16 c-48 12 -65 20 -65
33 0 15 5 15 50 -4 56 -23 73 -19 46 11 -17 18 -17 21 -2 43 9 12 24 23 34 23
22 0 29 52 9 68 -8 7 -20 33 -27 59 -16 62 -40 84 -40 38 0 -30 -21 -59 -42
-60 -4 0 -28 40 -52 88 -27 53 -60 102 -84 124 -32 29 -39 41 -38 71 1 20 5
39 9 43 16 17 7 61 -15 71 -42 20 -59 23 -80 12 -25 -13 -18 -55 15 -82 20
-18 20 -19 4 -29 -14 -8 -16 -13 -6 -24 10 -12 5 -14 -28 -14 -84 0 -134 -41
-149 -123 -8 -47 -48 -97 -77 -97 -12 0 -40 19 -64 42 -23 23 -45 39 -49 36
-12 -13 9 -88 39 -140 24 -39 43 -58 75 -73 28 -13 41 -24 37 -34 -3 -8 -1
-29 5 -47 7 -21 8 -43 1 -66 -5 -18 -10 -25 -10 -15 -1 9 -9 17 -19 17 -16 0
-18 -9 -18 -70 1 -65 -6 -88 -17 -57 -8 22 -25 -6 -32 -55 -6 -40 -5 -48 9
-48 9 0 16 -7 16 -16 0 -11 6 -15 20 -11 23 6 27 -8 5 -17 -8 -3 -15 -15 -15
-26 0 -22 -14 -24 -73 -11 -20 5 -46 20 -57 32 -15 18 -22 21 -28 11 -7 -10
-16 -10 -49 2 -22 8 -57 16 -78 19 -22 3 -44 12 -51 21 -13 18 -29 22 -18 4 5
-8 0 -9 -14 -6 -12 4 -25 2 -28 -3 -3 -6 -15 -7 -27 -3 -12 4 -29 7 -37 7 -9
-1 -27 7 -40 18 l-25 19 33 0 c18 0 44 7 58 17 20 13 52 17 152 17 115 1 131
4 169 25 37 22 60 47 50 57 -4 5 -179 42 -257 55 -183 31 -225 37 -229 34 -2
-2 -6 -42 -8 -89 -3 -47 -10 -83 -14 -80 -5 3 -9 52 -9 110 l0 105 38 -6 c20
-3 57 -10 82 -15 25 -5 70 -12 100 -16 30 -3 113 -19 184 -35 70 -16 136 -29
145 -29 17 0 45 56 35 71 -3 5 -23 12 -44 15 -34 6 -38 9 -30 25 8 14 5 21
-10 32 -26 18 -106 17 -102 -1 2 -9 -11 -11 -52 -7 -32 3 -57 1 -61 -5 -9 -14
-58 -12 -74 3 -11 10 -12 9 -6 -2 5 -9 3 -12 -6 -9 -8 3 -14 10 -14 16 0 5 -3
14 -7 18 -5 4 -8 10 -8 14 0 9 84 5 99 -4 6 -4 11 -3 11 3 0 12 -41 24 -81 25
-14 1 -33 7 -41 13 -8 7 -42 16 -75 19 -51 6 -60 4 -60 -10 0 -9 8 -16 18 -16
9 0 25 -3 33 -6 13 -5 8 -11 -19 -25 -20 -11 -40 -17 -45 -14 -11 7 -355 52
-500 66 -58 5 -161 16 -230 24 -69 9 -163 15 -210 15 -47 0 -101 3 -121 6 -36
6 -36 7 -28 43 25 117 30 158 28 221 -2 60 1 73 17 84 10 8 21 14 24 14 24 3
37 16 33 33 -3 10 -9 19 -14 19 -17 0 -24 2 -40 11 -10 5 -21 4 -28 -4 -10 -9
-12 -8 -9 8 2 13 -2 19 -11 17 -12 -3 -12 0 -1 12 7 9 18 16 25 16 7 0 12 10
11 23 -1 12 -7 21 -14 20 -7 -2 -12 2 -12 8 0 5 -4 8 -8 5 -4 -2 -14 -1 -22 4
-10 6 -3 13 28 25 29 12 42 23 42 37 0 10 -4 17 -9 14 -5 -4 -8 2 -6 11 3 24
-13 43 -36 43 -11 0 -19 5 -19 10 0 6 4 10 8 10 4 0 9 14 10 30 2 21 -2 30
-13 30 -14 0 -19 -12 -16 -32 0 -5 -7 -8 -16 -8 -13 0 -14 3 -5 12 17 17 15
28 -7 28 -10 0 -21 -7 -25 -15 -3 -9 -12 -12 -22 -8 -12 4 -15 3 -10 -5 4 -7
2 -12 -3 -12 -6 0 -11 6 -12 13 0 9 -2 9 -6 -1 -2 -6 -9 -10 -13 -7 -13 8 -43
-42 -37 -59 3 -7 1 -18 -4 -23 -26 -26 -15 -98 16 -101 6 -1 11 -10 13 -21 3
-18 -2 -21 -76 -45 -1 -1 -17 33 -35 75 -61 139 -231 367 -305 407 -35 20 -38
7 -9 -35 72 -105 131 -400 125 -628 -3 -123 -5 -134 -37 -202 l-34 -73 -134 0
-134 0 5 173 c3 94 8 335 12 535 l6 362 -44 0 c-24 0 -99 -7 -168 -15 -69 -8
-133 -15 -142 -15 -16 0 -18 11 -18 99 l0 98 -50 -5 c-47 -4 -50 -3 -51 19 -2
24 -2 24 -6 2 -5 -27 -9 -28 -168 -43 -66 -6 -139 -13 -162 -17 -37 -4 -43 -3
-44 13 -1 17 -2 17 -6 2 -2 -10 -9 -18 -14 -18 -5 0 -9 78 -9 185 0 155 2 185
14 185 11 0 16 -14 19 -47 2 -31 4 -19 5 35 l2 82 29 0 c15 0 41 4 57 10 48
16 246 26 266 14 4 -3 8 -64 8 -136 0 -72 2 -129 5 -127 2 3 5 59 6 125 l1
121 131 11 c157 14 187 15 187 4 0 -5 -39 -14 -87 -20 l-88 -10 84 5 c98 5
101 4 101 -79 0 -55 -1 -58 -25 -58 -20 0 -25 -5 -25 -24 0 -14 4 -27 8 -30 4
-3 55 -1 113 4 57 5 141 11 187 13 l82 4 0 -64 c0 -56 2 -63 19 -63 11 0 23
-4 26 -10 10 -17 112 -12 119 5 3 8 12 15 21 15 12 0 15 13 15 60 0 41 4 60
13 61 39 3 581 -2 682 -6 151 -7 356 -23 460 -35 44 -5 125 -14 180 -20 135
-15 145 -18 146 -38 1 -16 2 -16 6 1 2 9 10 17 16 17 8 0 7 4 -1 12 -7 7 -13
28 -13 47 -1 21 -3 27 -6 15 -4 -19 -8 -21 -46 -14 -55 10 -221 28 -327 36
-61 4 -81 3 -70 -5 12 -9 10 -11 -12 -11 -16 0 -28 4 -28 9 0 15 -27 20 -185
31 -138 9 -535 15 -665 10 -44 -2 -50 -4 -30 -10 17 -5 -1 -8 -57 -9 l-83 -1
0 115 c0 106 -1 115 -19 115 -10 0 -21 9 -24 20 -3 11 -12 20 -21 20 -16 0
-22 30 -9 43 10 11 620 8 693 -3z m-720 -20 c0 -13 -7 -20 -20 -20 -13 0 -20
-7 -20 -20 0 -13 -7 -20 -20 -20 -17 0 -19 -5 -13 -32 8 -42 13 -48 13 -16 0
17 7 27 20 31 11 3 20 12 20 21 0 11 9 16 30 16 20 0 30 -5 30 -15 0 -8 8 -15
19 -15 16 0 19 -12 26 -100 7 -99 -5 -186 -28 -217 -5 -7 -24 -13 -41 -13 -28
0 -33 4 -49 49 -9 27 -17 56 -17 65 0 22 -20 21 -21 -1 -1 -16 -2 -17 -6 -1
-3 14 -13 16 -51 13 -26 -3 -95 -7 -154 -10 l-108 -5 0 145 0 145 78 1 c42 1
111 5 152 9 144 13 160 12 160 -10z m1717 -56 c-3 -3 -12 -4 -19 -1 -8 3 -5 6
6 6 11 1 17 -2 13 -5z m76 -11 c-7 -2 -21 -2 -30 0 -10 3 -4 5 12 5 17 0 24
-2 18 -5z m60 -10 c-7 -2 -19 -2 -25 0 -7 3 -2 5 12 5 14 0 19 -2 13 -5z m120
-20 c-7 -2 -19 -2 -25 0 -7 3 -2 5 12 5 14 0 19 -2 13 -5z m2742 -11 c-3 -3
-11 0 -18 7 -9 10 -8 11 6 5 10 -3 15 -9 12 -12z m-2692 1 c-7 -2 -19 -2 -25
0 -7 3 -2 5 12 5 14 0 19 -2 13 -5z m-3966 -24 c21 -12 45 -26 53 -33 51 -41
108 -56 207 -56 54 0 103 4 109 9 5 5 34 7 64 4 l55 -5 -3 -282 c-1 -154 -4
-291 -5 -303 -2 -20 -6 -20 -105 23 -146 62 -267 97 -488 140 -16 3 -21 11
-21 31 0 16 -3 69 -8 118 -8 93 6 281 26 343 9 28 15 32 44 32 19 0 51 -9 72
-21z m4070 5 c-3 -3 -12 -4 -19 -1 -8 3 -5 6 6 6 11 1 17 -2 13 -5z m93 -14
c20 -6 21 -8 5 -8 -11 0 -33 4 -50 8 -27 7 -27 8 -5 8 14 0 36 -4 50 -8z
m-3390 -185 c0 -83 -3 -179 -6 -213 l-7 -60 -79 -12 c-44 -6 -87 -14 -96 -17
-14 -6 -15 15 -9 195 4 111 12 213 17 227 7 18 17 25 37 26 16 0 36 4 46 7 10
4 35 6 57 4 l40 -4 0 -153z m3497 159 c-3 -3 -12 -4 -19 -1 -8 3 -5 6 6 6 11
1 17 -2 13 -5z m50 -10 c-3 -3 -12 -4 -19 -1 -8 3 -5 6 6 6 11 1 17 -2 13 -5z
m40 -10 c-3 -3 -12 -4 -19 -1 -8 3 -5 6 6 6 11 1 17 -2 13 -5z m-3547 -14 c0
-5 -7 -10 -16 -10 -8 0 -12 5 -9 10 3 6 10 10 16 10 5 0 9 -4 9 -10z m3587 4
c-3 -3 -12 -4 -19 -1 -8 3 -5 6 6 6 11 1 17 -2 13 -5z m68 -14 c25 -11 -1 -11
-35 0 -20 6 -21 8 -5 8 11 0 29 -3 40 -8z m-2488 -216 c-3 -3 -12 -4 -19 -1
-8 3 -5 6 6 6 11 1 17 -2 13 -5z m2991 -39 c60 -17 62 -19 62 -51 0 -19 -2
-34 -4 -34 -1 0 -16 4 -32 10 -16 5 -48 14 -71 20 -41 10 -43 13 -43 46 0 26
4 35 13 31 7 -3 41 -13 75 -22z m178 -61 c40 -15 42 -18 48 -67 9 -75 7 -137
-3 -137 -32 0 -41 14 -41 65 0 60 -15 83 -61 92 -16 3 -29 11 -29 17 0 6 -3
22 -7 35 -6 22 -4 23 23 17 16 -4 48 -14 70 -22z m219 -46 c84 -31 125 -64
125 -100 0 -21 1 -21 14 -3 13 18 14 18 20 -3 11 -33 90 -136 151 -196 30 -29
55 -51 56 -47 0 3 5 -5 11 -19 7 -16 14 -168 18 -420 l6 -395 2 393 c2 351 4
392 17 378 14 -13 18 -12 40 8 14 13 25 28 25 33 0 5 7 10 15 10 8 0 15 -9 15
-19 0 -10 6 -18 14 -18 38 0 54 -240 57 -852 1 -306 4 -391 15 -405 24 -32 15
-31 -56 3 -38 19 -74 34 -79 34 -6 0 -21 5 -35 11 -24 11 -24 12 -25 162 -1
83 -4 153 -6 156 -3 2 -5 -102 -5 -232 0 -215 -6 -268 -24 -221 -5 14 -8 14
-21 1 -18 -19 -21 -18 -117 17 -55 20 -78 34 -83 50 -6 18 -8 19 -12 4 -5 -21
-7 -21 -31 -9 -9 6 -51 22 -92 37 -41 14 -87 31 -101 36 l-27 10 -6 171 c-3
95 -8 463 -11 820 l-5 647 27 -6 c16 -4 64 -20 108 -36z m-401 12 l66 -21 0
-45 c0 -38 -3 -45 -17 -40 -10 3 -44 12 -75 21 l-58 16 0 45 c0 24 4 44 9 44
5 0 39 -9 75 -20z m-6233 -44 c234 -39 294 -47 337 -45 26 2 72 2 102 0 48 -2
52 -4 30 -12 -14 -6 -56 -17 -93 -25 -60 -12 -76 -12 -125 0 -58 15 -137 27
-345 50 -65 7 -121 16 -124 20 -4 3 3 6 15 6 12 0 22 5 22 10 0 14 83 12 181
-4z m6389 -52 c0 -46 -1 -47 -37 -38 -20 6 -23 13 -23 55 l0 48 30 -10 c27
-10 30 -15 30 -55z m-3939 44 c0 -10 2 -10 6 0 2 6 13 12 24 12 17 0 19 -8 19
-76 l0 -76 -30 4 c-16 2 -31 1 -32 -3 -3 -6 -110 -19 -305 -36 l-53 -5 0 80 0
79 63 8 c212 25 307 29 308 13z m-1736 -30 c14 -6 6 -7 -25 -3 -25 3 -49 11
-55 17 -11 11 45 2 80 -14z m1265 -127 c0 -156 -5 -181 -37 -181 -25 0 -78 31
-100 58 -9 10 -13 50 -13 113 0 65 4 100 13 107 13 11 50 18 105 21 l32 1 0
-119z m4384 39 c35 -13 37 -55 4 -46 -13 3 -26 6 -30 6 -8 0 -11 50 -4 50 3 0
16 -4 30 -10z m104 -60 c3 -18 0 -21 -13 -16 -9 3 -21 6 -26 6 -5 0 -9 11 -9
25 0 21 3 23 23 16 12 -4 24 -18 25 -31z m-3610 -349 c-2 -209 -7 -383 -11
-387 -4 -5 -12 -3 -16 5 -6 9 -10 7 -14 -9 -4 -17 -10 -20 -31 -14 -22 5 -26
3 -26 -15 0 -15 -6 -21 -24 -21 -24 0 -36 21 -36 67 0 46 -38 39 -71 -13 -11
-19 -26 -31 -31 -28 -11 7 -3 763 8 773 5 6 131 17 207 19 l49 2 -4 -379z
m-363 26 c-6 -295 -16 -441 -29 -454 -3 -3 -21 -2 -41 1 -29 6 -46 20 -95 84
-33 42 -77 98 -97 124 -21 25 -45 61 -55 79 -9 18 -21 35 -25 38 -5 3 -26 29
-46 58 l-38 51 3 148 3 148 33 7 c49 10 283 34 350 36 l44 1 -7 -321z m3780
273 c55 -18 104 -36 110 -41 13 -13 -12 -11 -37 2 -11 6 -22 8 -25 5 -3 -2 -4
-63 -4 -134 1 -70 -1 -135 -4 -144 -5 -13 -12 -13 -58 -1 -28 7 -59 13 -68 13
-9 0 -19 10 -23 23 -8 32 -7 319 2 314 4 -2 52 -19 107 -37z m179 4 c9 -3 16
-15 16 -25 0 -15 -4 -17 -22 -10 -13 5 -24 16 -26 25 -4 17 6 20 32 10z m12
-75 c3 -5 1 -9 -5 -9 -17 0 -41 12 -41 20 0 10 38 1 46 -11z m-85 -9 c17 -10
19 -22 19 -135 0 -68 -3 -126 -7 -128 -5 -3 -18 -1 -30 4 -22 8 -23 13 -23
139 0 134 2 140 41 120z m77 -28 c9 -7 12 -42 10 -141 l-3 -132 -22 21 c-21
19 -23 29 -23 140 0 122 4 133 38 112z m-2883 -198 c-8 -16 -15 -27 -16 -24
-7 50 -6 61 9 69 23 13 27 -8 7 -45z m100 16 c3 -5 1 -10 -4 -10 -6 0 -11 5
-11 10 0 6 2 10 4 10 3 0 8 -4 11 -10z m45 -36 c0 -8 -4 -14 -10 -14 -5 0 -10
-7 -10 -15 0 -8 -4 -15 -10 -15 -14 0 -12 11 5 34 8 10 12 23 8 29 -3 6 -1 7
5 3 7 -4 12 -14 12 -22z m-110 -4 c0 -5 -8 -10 -17 -10 -15 0 -16 2 -3 10 19
12 20 12 20 0z m-64 -57 c-2 -3 -9 -2 -15 1 -7 5 -6 16 2 34 l12 27 3 -29 c2
-15 1 -30 -2 -33z m49 8 c-3 -6 -11 -11 -17 -11 -6 0 -6 6 2 15 14 17 26 13
15 -4z m41 -8 c-10 -10 -19 5 -10 18 6 11 8 11 12 0 2 -7 1 -15 -2 -18z m24
-27 c0 -11 -19 -15 -25 -6 -3 5 1 10 9 10 9 0 16 -2 16 -4z m57 -32 c-3 -3
-12 -4 -19 -1 -8 3 -5 6 6 6 11 1 17 -2 13 -5z m-97 -14 c0 -5 -2 -10 -4 -10
-3 0 -8 5 -11 10 -3 6 -1 10 4 10 6 0 11 -4 11 -10z m55 -10 c-3 -5 -11 -10
-16 -10 -6 0 -7 5 -4 10 3 6 11 10 16 10 6 0 7 -4 4 -10z m-161 -35 c-4 -8
-14 -15 -23 -15 -14 1 -13 3 3 15 25 19 27 19 20 0z m134 -36 c-14 -9 42 -39
74 -40 16 -1 18 -3 6 -6 -17 -4 -17 -14 -3 -106 6 -34 -31 -220 -51 -258 -8
-15 -14 -35 -14 -44 0 -8 -9 -24 -19 -34 -36 -36 -43 -58 -31 -102 13 -48 9
-59 -12 -27 -8 13 -18 56 -21 96 -5 60 -3 72 9 72 30 0 82 158 86 264 2 40 -2
51 -21 67 -26 21 -62 24 -92 9 -15 -8 -23 -7 -38 7 -19 18 -18 18 22 22 23 2
66 4 95 5 58 1 63 13 14 35 -28 13 -32 19 -32 55 l0 41 20 -25 c12 -16 15 -27
8 -31z m-44 -9 c3 -19 14 -34 28 -40 20 -8 19 -9 -13 -9 -20 -1 -51 -4 -68 -7
-27 -6 -31 -4 -31 15 0 23 44 71 65 71 7 0 15 -14 19 -30z m-91 0 c-5 -19 -23
-29 -23 -12 0 7 20 32 26 32 1 0 0 -9 -3 -20z m212 1 c10 -17 -11 -21 -31 -6
-18 14 -18 14 3 15 12 0 24 -4 28 -9z m50 -11 c-3 -5 -13 -6 -21 -3 -12 4 -13
8 -3 14 15 9 32 2 24 -11z m2295 -80 c11 -8 7 -9 -15 -4 -37 8 -45 14 -19 14
10 0 26 -5 34 -10z m60 -20 c18 -12 2 -12 -25 0 -13 6 -15 9 -5 9 8 0 22 -4
30 -9z m-2488 -17 c21 -19 22 -35 7 -117 -15 -84 -44 -146 -67 -146 -16 0 -22
16 -37 103 -10 56 -20 114 -22 128 -4 22 0 28 24 37 42 16 74 14 95 -5z m-822
-97 c0 -3 -4 -8 -10 -11 -5 -3 -10 -1 -10 4 0 6 5 11 10 11 6 0 10 -2 10 -4z
m-51 -36 c14 -1 13 -3 -3 -15 -10 -8 -24 -24 -30 -36 -19 -39 -34 -33 -38 16
l-3 47 29 -6 c16 -3 36 -6 45 -6z m46 0 c-3 -5 -11 -10 -16 -10 -6 0 -7 5 -4
10 3 6 11 10 16 10 6 0 7 -4 4 -10z m-95 -124 c0 -9 -7 -12 -20 -9 -11 3 -17
9 -14 14 8 14 34 10 34 -5z m108 -4 c2 -7 -7 -12 -23 -12 -24 0 -26 2 -15 15
14 17 31 16 38 -3z m2867 8 c3 -5 1 -10 -4 -10 -6 0 -11 5 -11 10 0 6 2 10 4
10 3 0 8 -4 11 -10z m-45 -10 c0 -5 -5 -10 -11 -10 -5 0 -7 5 -4 10 3 6 8 10
11 10 2 0 4 -4 4 -10z m272 -12 c-7 -7 -12 -8 -12 -2 0 14 12 26 19 19 2 -3
-1 -11 -7 -17z m62 -23 c15 -11 17 -18 9 -26 -13 -13 -66 17 -57 32 8 13 26
11 48 -6z m-2035 -23 c7 -13 6 -27 -5 -47 -9 -18 -12 -40 -8 -61 5 -27 3 -35
-12 -40 -11 -3 -27 -10 -37 -15 -11 -6 -21 -8 -24 -5 -16 16 0 128 23 163 18
28 50 30 63 5z m1777 -5 c33 -5 67 -42 59 -66 -3 -12 -14 -21 -24 -21 -39 0
-81 13 -81 25 0 7 -7 15 -15 19 -22 8 -18 25 5 19 17 -4 20 0 20 23 0 18 3 24
8 17 4 -7 17 -14 28 -16z m-2616 -6 c-23 -13 -217 -24 -205 -12 10 9 65 16
170 19 31 1 44 -2 35 -7z m695 -11 c45 -7 40 -7 -42 -9 -56 0 -93 3 -93 9 0
12 63 12 135 0z m1128 -14 c4 -10 1 -13 -8 -9 -8 3 -12 9 -9 14 7 12 11 11 17
-5z m-873 -6 c0 -5 -4 -10 -10 -10 -5 0 -10 5 -10 10 0 6 5 10 10 10 6 0 10
-4 10 -10z m245 -15 c77 -8 192 -22 255 -30 63 -9 137 -19 163 -22 26 -3 50
-10 53 -14 7 -13 1 -12 -242 20 -120 16 -263 32 -316 36 -54 4 -98 11 -98 16
0 12 21 11 185 -6z m630 -15 c13 -6 15 -9 5 -9 -8 0 -22 4 -30 9 -18 12 -2 12
25 0z m344 -18 c12 -11 8 -12 -25 -6 -51 9 -62 16 -38 24 22 8 43 2 63 -18z
m-454 8 c3 -6 -1 -7 -9 -4 -18 7 -21 14 -7 14 6 0 13 -4 16 -10z m-1001 -41
c19 -17 -5 -21 -98 -14 -94 7 -123 19 -68 28 38 6 155 -4 166 -14z m1250 2 c4
-5 -3 -7 -14 -4 -23 6 -26 13 -6 13 8 0 17 -4 20 -9z m-804 -21 c266 -30 500
-69 500 -84 0 -8 -40 -6 -137 6 -76 10 -192 24 -258 33 -66 8 -143 15 -171 15
-65 0 -84 7 -84 31 0 15 5 18 23 15 12 -2 69 -10 127 -16z m1340 -54 c0 -8 -4
-17 -8 -20 -5 -3 -21 -37 -36 -76 l-29 -72 -55 7 c-65 8 -82 14 -82 27 0 7 4
7 13 0 11 -9 70 -17 109 -13 22 1 41 66 28 91 -12 22 -32 30 -77 30 -50 0 -33
13 35 26 82 16 102 16 102 0z m379 -50 c-1 -17 -3 -23 -6 -13 -2 9 -8 17 -11
17 -4 0 -23 14 -42 30 l-35 29 48 -16 c43 -14 47 -18 46 -47z m-61 7 c7 -7 19
-13 25 -13 7 -1 3 -6 -8 -13 -11 -7 -21 -16 -22 -22 -9 -59 -6 -74 15 -92 25
-19 42 -96 25 -106 -6 -4 -8 4 -5 18 2 14 1 33 -4 42 -4 10 -8 21 -8 24 -1 3
-14 18 -31 33 -20 18 -26 29 -17 33 19 8 14 67 -8 96 -11 14 -20 31 -20 38 0
11 14 2 58 -38z m-281 -17 c-7 -46 -36 -115 -50 -116 -5 0 -15 6 -23 14 -12
13 -11 22 7 68 24 62 36 78 57 78 12 0 14 -9 9 -44z m233 15 c17 -33 12 -51
-15 -51 -22 0 -25 4 -25 35 0 39 22 48 40 16z m-445 -11 c3 -5 -1 -10 -9 -10
-9 0 -16 5 -16 10 0 6 4 10 9 10 6 0 13 -4 16 -10z m-1675 -30 c0 -5 -4 -10
-10 -10 -5 0 -10 5 -10 10 0 6 5 10 10 10 6 0 10 -4 10 -10z m2128 -74 c8 -19
8 -25 -3 -30 -13 -5 -45 28 -45 46 0 19 38 6 48 -16z m260 -22 c163 -49 169
-52 202 -100 28 -40 39 -74 24 -74 -8 0 -225 64 -314 92 -80 26 -87 32 -96 87
l-7 44 37 -7 c21 -4 90 -23 154 -42z m1039 -26 l63 -33 0 -102 0 -102 -32 6
c-40 7 -82 28 -125 61 l-33 24 0 95 0 96 32 -7 c17 -3 60 -21 95 -38z m-1470
-10 c-3 -7 -5 -2 -5 12 0 14 2 19 5 13 2 -7 2 -19 0 -25z m978 -33 c59 -22 77
-33 64 -40 -21 -13 -70 -9 -134 11 -33 10 -62 21 -65 24 -3 4 -13 9 -22 13
-10 4 -18 17 -18 30 l0 24 78 -27 c42 -15 86 -30 97 -35z m-998 33 c-3 -8 -6
-5 -6 6 -1 11 2 17 5 13 3 -3 4 -12 1 -19z m-247 8 c0 -11 -19 -15 -25 -6 -3
5 1 10 9 10 9 0 16 -2 16 -4z m80 -23 c0 -12 -3 -14 -8 -6 -4 6 -21 13 -37 16
-27 4 -27 4 8 6 29 1 37 -3 37 -16z m-19 -70 c-12 -20 -14 -14 -5 12 4 9 9 14
11 11 3 -2 0 -13 -6 -23z m146 -16 c2 -3 -12 -36 -31 -73 -19 -38 -35 -64 -36
-58 0 6 14 35 30 66 l30 56 -26 6 c-19 5 -30 2 -41 -11 -13 -16 -13 -16 -3 5
9 18 17 22 42 18 16 -2 32 -7 35 -9z m284 -18 c-5 -13 -10 -19 -10 -12 -1 15
10 45 15 40 3 -2 0 -15 -5 -28z m-450 -16 c-12 -20 -14 -14 -5 12 4 9 9 14 11
11 3 -2 0 -13 -6 -23z m96 -50 c-3 -10 -5 -2 -5 17 0 19 2 27 5 18 2 -10 2
-26 0 -35z m303 -30 l35 -38 -40 38 c-23 20 -44 37 -47 37 -4 0 -9 -12 -11
-27 -3 -22 -4 -20 -6 10 -1 33 1 37 17 28 9 -5 33 -27 52 -48z m961 6 c133
-48 203 -99 213 -157 l6 -32 -38 18 c-20 11 -92 40 -159 66 -100 39 -122 51
-127 71 -3 13 -17 37 -31 54 l-26 30 23 -4 c13 -3 75 -23 139 -46z m-1384 -11
c-3 -7 -5 -2 -5 12 0 14 2 19 5 13 2 -7 2 -19 0 -25z m1671 -127 c2 -88 0
-112 -10 -109 -7 3 -19 38 -27 78 -9 44 -17 67 -20 57 -5 -15 -13 -11 -46 24
l-40 41 39 -16 c21 -9 42 -13 47 -10 5 3 9 0 9 -6 0 -6 5 -8 10 -5 6 3 10 20
10 36 0 20 4 29 13 27 8 -3 13 -38 15 -117z m-1681 57 c-2 -13 -4 -5 -4 17 -1
22 1 32 4 23 2 -10 2 -28 0 -40z m1763 18 c0 5 25 -16 55 -46 51 -50 55 -58
54 -96 -2 -30 3 -46 20 -63 13 -13 20 -29 17 -38 -3 -8 -6 -18 -6 -23 0 -10
-34 0 -115 33 l-60 25 -6 106 c-4 67 -11 112 -20 123 -10 13 -4 11 24 -6 20
-12 37 -19 37 -15z m-3405 -1 c55 -8 146 -14 203 -14 91 1 308 -15 370 -27 15
-3 22 -11 22 -28 0 -28 16 -36 75 -36 34 0 44 4 48 20 4 15 14 20 39 20 35 0
170 -19 320 -45 46 -7 117 -19 158 -25 122 -18 406 -74 555 -110 44 -10 114
-27 155 -36 226 -51 619 -164 920 -265 128 -43 226 -78 219 -78 -9 -1 -215 45
-329 74 -322 81 -521 127 -640 150 -74 14 -196 39 -270 55 -129 28 -382 71
-500 85 -30 4 -131 20 -225 35 -175 29 -301 45 -440 55 -150 11 -233 24 -505
80 -228 48 -284 55 -448 62 l-163 6 23 25 c23 24 23 24 168 17 80 -3 190 -13
245 -20z m2022 -22 c-3 -10 -5 -4 -5 12 0 17 2 24 5 18 2 -7 2 -21 0 -30z
m-137 7 c11 -7 3 -10 -28 -10 -26 0 -41 4 -37 10 8 13 45 13 65 0z m115 -24
c18 -13 17 -14 -13 -30 -37 -19 -45 -20 -40 -3 3 6 18 15 34 19 22 6 19 6 -13
4 -40 -4 -52 2 -36 17 11 12 48 8 68 -7z m-135 -11 c-27 -14 -36 -13 -25 4 3
6 16 11 28 11 21 -1 21 -1 -3 -15z m178 -20 c-3 -3 -9 2 -12 12 -6 14 -5 15 5
6 7 -7 10 -15 7 -18z m-2283 -1 c58 -4 238 -37 460 -85 72 -15 219 -37 290
-44 39 -3 88 -8 110 -10 22 -2 74 -7 115 -10 41 -4 156 -20 255 -36 99 -15
272 -42 385 -58 113 -17 259 -42 325 -56 171 -36 242 -50 395 -80 74 -14 164
-34 200 -44 36 -11 135 -35 220 -56 85 -20 218 -56 295 -80 201 -63 363 -109
495 -141 63 -15 165 -45 225 -67 170 -61 251 -86 297 -93 39 -6 124 -42 299
-127 66 -32 67 -32 62 -67 -3 -19 -14 -44 -24 -55 -17 -17 -23 -18 -56 -8 -65
20 -187 63 -208 73 -34 16 -494 166 -600 195 -55 15 -111 31 -125 35 -14 4
-86 25 -160 45 -74 20 -144 41 -155 45 -11 4 -49 16 -85 25 -36 10 -85 24
-110 31 -25 7 -94 27 -155 44 -60 17 -159 46 -220 65 -183 57 -277 81 -365 91
-25 3 -72 12 -105 21 -33 8 -80 18 -105 23 -325 55 -427 73 -495 86 -172 33
-369 68 -530 95 -33 5 -71 12 -85 15 -14 3 -77 14 -141 24 -63 10 -142 24
-175 30 -109 22 -327 37 -539 38 -120 0 -225 5 -245 11 -19 6 -53 11 -74 11
l-40 0 69 65 70 64 80 -5 c44 -2 112 -7 150 -10z m2302 -66 c-3 -8 -6 -5 -6 6
-1 11 2 17 5 13 3 -3 4 -12 1 -19z m-3264 -158 c-21 -37 -29 -37 -73 0 l-35
29 63 1 63 0 -18 -30z m-1063 -154 c0 -2 -23 -11 -52 -21 -29 -9 -83 -37 -120
-61 -67 -43 -68 -43 -54 -15 22 41 129 99 184 100 23 1 42 -1 42 -3z m165
-104 c25 -21 57 -100 47 -116 -3 -6 -7 -25 -7 -43 -1 -25 -10 -38 -47 -66 -43
-33 -147 -78 -179 -77 -8 1 1 9 20 19 28 15 37 28 47 67 19 70 17 95 -9 147
-19 37 -21 47 -10 52 8 2 23 0 33 -5 10 -6 28 -10 40 -10 17 0 19 4 14 25 -5
20 -2 25 12 25 11 -1 28 -8 39 -18z m-355 -104 c0 -16 -31 -48 -47 -48 -19 0
-16 17 7 40 22 22 40 26 40 8z m1131 -61 c4 1 14 -7 24 -17 17 -19 17 -20 -11
-30 -23 -9 -25 -13 -14 -20 8 -6 10 -10 5 -10 -6 0 -11 -9 -11 -20 0 -13 5
-19 13 -16 8 4 13 -3 13 -17 0 -18 2 -19 10 -7 6 9 10 10 10 3 0 -16 -17 -26
-25 -13 -4 6 -11 8 -16 5 -5 -4 -9 -1 -9 4 0 16 -17 13 -23 -3 -3 -8 1 -13 11
-12 9 0 16 -5 14 -12 -2 -10 8 -13 35 -10 31 2 39 -1 50 -22 8 -14 11 -36 9
-50 -3 -14 -6 -34 -8 -44 -4 -25 20 -33 29 -9 8 22 32 47 56 56 9 3 21 21 25
39 8 37 4 54 31 -174 15 -124 0 -228 -63 -458 -15 -52 -33 -131 -41 -175 -42
-229 -50 -244 -146 -293 -80 -41 -158 -55 -230 -43 -30 5 -44 9 -32 10 24 1
43 21 21 21 -8 0 -31 9 -53 20 -22 11 -53 20 -70 20 -17 0 -39 6 -50 14 -30
20 -184 36 -358 37 -108 0 -159 4 -165 12 -8 9 1 11 36 9 40 -2 44 -1 27 9
-38 23 -56 42 -44 49 11 8 -71 95 -152 162 l-44 36 40 17 c22 9 49 20 60 25
11 5 30 12 43 15 12 4 20 10 18 14 -3 3 10 16 27 28 29 20 38 21 97 13 82 -13
285 -3 370 17 67 16 170 57 170 68 0 3 -4 4 -9 1 -17 -11 -145 -25 -174 -19
l-30 6 24 18 c24 18 23 19 -62 19 -72 0 -98 5 -155 29 -125 52 -179 81 -233
126 -68 55 -77 70 -57 91 15 14 19 27 14 39 -5 9 39 34 65 37 14 2 29 7 33 11
4 4 18 7 31 7 13 0 23 4 23 10 0 5 7 6 17 3 10 -4 14 -2 9 5 -6 10 17 22 53
28 8 2 18 8 22 15 4 7 26 13 47 13 22 1 38 3 36 5 -12 13 71 34 141 37 44 2
81 8 83 14 5 14 32 13 32 -1 0 -7 5 -8 13 -2 6 5 25 10 42 12 35 4 85 36 85
56 0 7 10 15 21 18 16 4 20 10 14 24 -13 30 -6 67 15 82 11 7 20 21 20 31 0
22 42 44 69 35 12 -3 19 -9 17 -13 -2 -4 12 -8 31 -8 21 -1 30 2 22 6 -10 7
-10 11 0 24 11 13 17 13 35 4 11 -7 24 -11 27 -11z m-1254 -223 c-3 -3 -12 -4
-19 -1 -8 3 -5 6 6 6 11 1 17 -2 13 -5z m1958 -638 c10 -7 20 -22 21 -32 1
-11 6 -36 10 -57 5 -28 3 -41 -8 -50 -9 -7 -18 -30 -22 -52 -3 -22 -26 -86
-51 -142 -40 -91 -64 -163 -67 -200 -1 -7 -32 -54 -71 -105 -38 -51 -72 -98
-75 -104 -4 -5 -18 -18 -32 -28 -14 -10 -17 -16 -7 -13 9 4 17 2 17 -3 0 -15
-26 -12 -39 3 -15 19 -113 11 -173 -14 -63 -26 -82 -25 -68 1 6 11 8 25 5 31
-4 6 19 36 52 68 32 31 69 77 83 100 14 24 56 79 93 124 77 91 93 119 132 232
37 111 83 216 102 237 19 21 72 24 98 4z m268 -189 l58 -12 -36 -35 -36 -35
-34 40 c-52 61 -50 62 48 42z m-2265 -44 c97 -79 148 -126 127 -118 -11 4 -33
13 -50 19 -29 11 -57 32 -140 108 -35 33 -37 38 -18 38 12 0 48 -21 81 -47z
m2446 26 c-3 -5 10 -38 30 -73 39 -70 78 -100 171 -135 71 -27 235 -145 235
-170 0 -9 5 -22 12 -29 9 -9 4 -12 -22 -14 -57 -2 -82 2 -147 23 -78 25 -218
131 -208 157 13 33 17 72 8 72 -20 0 -52 -32 -71 -72 -20 -44 -95 -119 -196
-196 -50 -39 -55 -45 -49 -73 5 -25 2 -31 -16 -36 -29 -7 -37 -46 -21 -113 7
-30 12 -65 12 -78 0 -24 48 -80 103 -118 30 -21 30 -22 11 -43 -14 -16 -17
-24 -8 -33 30 -30 457 -46 563 -21 73 17 92 16 137 -4 44 -19 47 -20 69 -22
35 -2 -52 -48 -126 -65 -41 -10 -147 -42 -235 -71 -149 -49 -200 -58 -165 -31
8 6 15 23 17 38 5 44 -27 56 -179 67 -73 6 -154 13 -179 17 -88 14 -338 135
-432 209 -14 12 -29 35 -32 51 -7 30 -8 31 -58 26 -48 -5 -50 -4 -39 15 15 29
66 71 172 144 51 35 129 101 174 146 44 45 115 105 157 133 43 28 88 65 100
83 12 18 30 39 39 47 38 35 79 100 79 124 0 19 9 32 31 45 30 18 74 18 63 0z
m506 -123 c179 -36 447 -90 595 -121 149 -30 403 -82 565 -115 162 -33 338
-69 390 -80 52 -11 142 -29 200 -41 58 -11 123 -24 145 -29 22 -5 76 -17 119
-25 44 -9 85 -19 92 -23 10 -5 -12 -29 -68 -77 -45 -39 -87 -74 -95 -78 -11
-7 -265 37 -346 61 l-29 8 72 67 c70 65 79 87 39 87 -29 0 -58 -17 -111 -68
-84 -80 -72 -77 -221 -48 -73 15 -143 29 -156 32 -24 5 -23 6 17 47 46 47 53
67 21 67 -29 0 -58 -17 -101 -58 l-37 -35 -118 22 c-65 13 -129 25 -141 28
-22 5 -18 11 52 82 42 43 73 80 70 84 -21 21 -80 -13 -182 -105 -48 -43 -31
-43 -212 -7 -52 11 -121 24 -152 30 -32 6 -58 14 -58 18 0 4 23 29 50 56 28
27 50 53 50 57 0 10 -54 11 -64 1 -3 -4 4 -13 16 -20 21 -13 20 -13 -17 -8
-35 4 -44 1 -79 -30 -27 -25 -47 -35 -71 -35 -51 0 -66 9 -55 31 28 52 -32
112 -115 115 -98 3 -91 1 -67 27 12 13 22 29 22 36 0 22 -69 5 -99 -23 l-26
-24 -122 76 c-128 81 -151 98 -118 89 11 -3 166 -35 345 -71z m-928 -128 c-9
-9 -12 -7 -12 12 0 19 3 21 12 12 9 -9 9 -15 0 -24z m1025 -24 c-3 -3 -12 -4
-19 -1 -8 3 -5 6 6 6 11 1 17 -2 13 -5z m-1875 -105 c-32 -71 -48 -91 -119
-156 -46 -42 -106 -107 -135 -146 -29 -39 -54 -64 -56 -57 -3 7 6 75 18 150
13 75 21 143 18 151 -3 8 -16 19 -29 25 -13 7 -60 29 -104 50 l-80 39 248 7
c137 3 251 9 254 12 22 22 16 -5 -15 -75z m1447 -27 c9 -5 -114 -112 -135
-118 -12 -3 -55 2 -97 10 -42 9 -80 16 -84 16 -4 0 8 8 27 19 19 10 50 40 69
67 62 89 63 89 145 46 39 -20 73 -38 75 -40z m532 -9 c7 -7 -110 -118 -206
-195 -20 -15 -29 -14 -155 13 -74 15 -152 31 -172 35 -21 4 -38 10 -38 14 0 4
26 32 59 63 l58 56 44 -16 c64 -22 234 -1 295 36 21 13 100 9 115 -6z m291
-53 c153 -30 200 -43 188 -52 -3 -2 -39 -33 -80 -69 -41 -36 -95 -80 -119 -99
l-43 -34 -112 23 c-61 12 -146 30 -189 39 l-79 18 93 79 c51 44 106 92 123
107 17 15 36 26 42 24 5 -2 85 -19 176 -36z m-5930 -22 c-8 -8 -9 -15 -1 -25
9 -10 7 -13 -11 -13 -15 0 -20 -5 -17 -14 3 -8 -6 -24 -20 -37 -16 -15 -27
-20 -30 -13 -2 7 -13 10 -23 7 -23 -6 -24 -4 -10 32 8 22 15 26 35 22 14 -2
28 0 31 4 3 5 0 9 -7 9 -16 0 33 39 51 40 11 0 11 -3 2 -12z m4828 -48 c25 -5
58 -13 74 -18 l29 -8 -69 -67 c-38 -36 -71 -63 -75 -59 -3 4 -18 37 -34 74
-31 74 -28 104 8 94 12 -4 42 -11 67 -16z m1524 -15 c65 -13 121 -27 124 -30
7 -6 -165 -175 -205 -202 -20 -13 -36 -12 -155 12 -73 15 -137 29 -141 32 -12
7 23 43 118 121 44 37 86 72 93 79 18 17 28 17 166 -12z m-2481 -15 c-6 -22
-21 -35 -30 -26 -5 5 24 46 33 46 1 0 0 -9 -3 -20z m3957 -41 c140 -28 183
-39 153 -39 -6 0 -53 -34 -104 -76 -105 -84 -82 -80 -249 -48 -132 25 -161 35
-152 51 16 29 167 151 182 148 8 -3 85 -18 170 -36z m-2625 -8 c55 -12 115
-25 133 -28 17 -3 32 -9 32 -13 0 -6 -173 -161 -220 -197 -15 -11 -45 -7 -195
26 -27 6 -63 14 -78 17 -17 4 -33 17 -40 31 -12 28 -4 38 115 138 83 69 63 67
253 26z m1465 3 c10 -4 209 -44 216 -44 7 0 -125 -129 -174 -170 l-63 -54 -92
17 c-120 23 -190 39 -200 47 -4 4 42 55 102 113 l110 107 43 -6 c24 -3 50 -8
58 -10z m1507 -64 c48 -10 123 -26 165 -35 l77 -17 -67 -51 c-37 -28 -82 -63
-100 -78 -19 -14 -41 -25 -50 -23 -10 1 -80 15 -157 29 -173 33 -168 31 -158
49 14 25 167 146 185 146 9 0 56 -9 105 -20z m-2612 -15 c204 -44 259 -55 268
-55 15 0 -27 -43 -129 -130 l-91 -78 -59 28 c-77 38 -160 59 -241 61 -64 2
-64 2 -45 21 68 68 190 167 207 167 11 1 52 -6 90 -14z m1579 -16 c213 -43
200 -33 130 -95 -32 -30 -90 -79 -127 -110 l-68 -57 -72 12 c-70 11 -188 37
-235 50 l-23 6 26 35 c28 38 194 189 209 190 5 0 77 -14 160 -31z m1526 -69
c80 -17 151 -33 159 -35 8 -3 -11 -24 -53 -55 -37 -27 -79 -61 -94 -75 -15
-14 -38 -25 -52 -25 -30 0 -311 57 -318 65 -7 7 -4 9 93 89 44 36 89 66 100
66 11 0 85 -14 165 -30z m-2675 -5 c39 -8 104 -22 145 -31 41 -9 76 -17 78
-18 4 -4 -195 -193 -222 -211 -22 -14 -32 -14 -131 10 -59 14 -113 25 -120 25
-8 0 -26 4 -40 10 l-26 10 53 49 c29 26 85 76 123 109 39 34 70 61 70 62 0 0
32 -7 70 -15z m1575 -9 c47 -9 104 -21 128 -28 l43 -13 -112 -94 c-162 -136
-144 -129 -285 -102 -66 12 -134 27 -153 33 l-33 10 48 43 c27 23 85 72 129
108 90 75 74 72 235 43z m-8484 -66 c15 -15 124 -25 124 -11 0 6 7 11 15 11
18 0 29 -45 26 -107 -1 -18 -7 -23 -26 -23 -14 0 -25 3 -25 8 0 4 -21 7 -48 7
-83 1 -98 9 -111 60 -6 25 -9 50 -6 56 8 12 38 12 51 -1z m5933 -19 c36 -9 67
-22 69 -30 11 -33 -171 13 -193 49 -7 11 18 7 124 -19z m1476 -11 c61 -13 112
-24 114 -26 4 -3 -174 -178 -214 -209 l-30 -23 -135 30 c-74 16 -139 34 -144
39 -12 11 5 30 125 139 110 100 75 94 284 50z m1550 1 l136 -27 -53 -42 c-182
-144 -235 -182 -249 -182 -26 0 -301 59 -308 66 -6 6 18 28 168 154 96 82 65
78 306 31z m-8741 -18 c5 -17 2 -31 -8 -41 -13 -13 -16 -12 -21 11 -8 29 -1
57 14 57 5 0 12 -12 15 -27z m-304 -9 c11 -28 4 -74 -11 -74 -11 0 -15 11 -24
63 -5 30 -3 37 10 37 8 0 20 -12 25 -26z m9448 -53 c84 -17 155 -31 159 -31 6
0 -20 -21 -191 -157 l-100 -79 -60 13 c-34 7 -109 23 -167 35 -65 13 -105 26
-102 32 2 6 41 40 86 76 45 36 93 75 107 87 65 55 76 63 95 59 11 -3 89 -19
173 -35z m-1618 9 c19 -5 70 -16 112 -25 101 -21 104 -14 -77 -170 -39 -33
-77 -66 -86 -73 -13 -10 -42 -6 -154 19 -200 45 -191 32 -88 125 48 45 104 95
123 113 32 29 39 31 85 26 28 -3 66 -10 85 -15z m-7755 -40 c19 -8 19 -9 -2
-9 -12 -1 -25 4 -28 9 -7 12 2 12 30 0z m6721 -55 c64 -14 123 -29 131 -34 11
-5 -22 -42 -123 -140 -110 -105 -142 -131 -159 -126 -11 3 -51 12 -90 20 -38
8 -103 23 -143 33 l-73 18 53 49 c30 28 76 69 103 91 28 23 70 60 95 83 32 29
51 39 67 36 12 -3 75 -17 139 -30z m1404 16 c25 -5 81 -16 124 -25 44 -9 84
-20 88 -24 9 -9 -218 -205 -259 -224 -16 -8 -50 -4 -135 16 -62 14 -127 29
-144 32 l-32 6 52 47 c138 122 229 191 245 186 9 -2 36 -9 61 -14z m1640 -7
c74 -15 138 -29 142 -33 5 -4 -27 -34 -69 -66 -42 -33 -106 -84 -142 -112 -36
-29 -75 -53 -87 -53 -30 0 -258 51 -267 60 -5 4 36 44 90 88 54 44 114 94 133
111 19 16 42 30 50 31 8 0 76 -12 150 -26z m-3370 -36 c-19 -17 -51 -45 -70
-62 -19 -17 -60 -52 -90 -77 l-55 -46 -119 26 -118 27 97 37 c53 21 123 44
154 51 31 8 94 27 141 44 47 16 87 30 90 30 3 1 -11 -13 -30 -30z m-642 0 c17
-17 15 -45 -4 -52 -9 -3 -39 -6 -68 -6 -30 0 -61 -6 -74 -15 -27 -20 -203 -18
-210 3 -2 7 6 12 24 12 15 0 46 9 68 19 23 11 61 22 86 24 25 3 63 10 85 15
57 14 79 14 93 0z m-1133 -69 c2 -3 -21 -34 -52 -69 -51 -59 -103 -147 -103
-177 0 -7 -16 -38 -35 -70 -30 -49 -35 -67 -35 -118 0 -38 -4 -55 -9 -46 -12
19 -80 29 -153 22 -62 -6 -63 -7 -60 -33 2 -25 0 -28 -28 -28 -33 0 -35 -3
-20 -29 22 -42 127 -62 213 -42 37 9 39 8 32 -12 -4 -12 -16 -56 -26 -97 -30
-117 -40 -143 -64 -170 -33 -36 -89 -153 -114 -237 -12 -40 -24 -73 -26 -73
-5 0 -35 56 -35 65 0 3 6 5 13 5 18 0 35 31 41 76 3 22 3 33 0 27 -3 -7 -12
-13 -20 -13 -8 0 -14 -10 -14 -24 0 -18 -8 -27 -29 -34 -37 -13 -51 -50 -25
-69 17 -12 6 -14 -78 -11 -89 3 -98 5 -98 22 0 91 49 459 73 546 8 30 18 82
23 115 4 33 13 75 21 95 37 87 63 138 85 165 14 17 37 53 52 81 l28 52 55 -25
c82 -38 175 -34 188 7 3 11 26 46 50 79 l44 60 51 -18 c27 -10 52 -20 55 -22z
m2477 10 c73 -17 137 -34 141 -38 7 -8 -59 -75 -212 -218 -49 -46 -57 -50 -85
-43 -17 4 -65 15 -106 24 -105 23 -151 38 -148 48 3 7 269 258 275 258 1 0 62
-14 135 -31z m1463 12 c50 -11 116 -25 148 -31 32 -6 57 -15 55 -19 -4 -10
-93 -83 -206 -170 -80 -60 -85 -63 -125 -57 -92 14 -267 61 -264 71 7 19 268
225 286 225 9 0 57 -9 106 -19z m-4199 -29 c-4 -7 -17 -6 -37 1 l-31 12 28 6
c31 6 50 -3 40 -19z m1498 -17 c-4 -8 -11 -12 -16 -8 -6 3 -47 9 -92 13 l-81
7 97 2 c83 1 97 -1 92 -14z m3208 -59 c35 -8 78 -18 96 -21 17 -4 32 -10 32
-13 -1 -6 -122 -106 -257 -211 l-44 -34 -57 12 c-165 37 -272 64 -272 71 0 8
57 55 211 176 l78 61 75 -13 c41 -7 103 -20 138 -28z m-1645 20 c32 -7 85 -20
118 -27 115 -24 113 -23 58 -73 -136 -124 -248 -216 -262 -216 -9 0 -76 15
-149 33 l-134 32 87 80 c48 44 112 103 144 132 31 29 61 52 68 53 6 0 38 -6
70 -14z m-1517 -26 c31 -10 190 -44 290 -64 41 -8 111 -24 155 -36 170 -45
242 -63 290 -71 28 -5 68 -13 90 -18 22 -5 74 -16 115 -25 41 -9 81 -23 90
-31 10 -9 36 -15 63 -15 25 0 86 -9 134 -21 48 -11 131 -29 183 -39 52 -10
120 -25 150 -33 30 -9 92 -24 136 -33 l82 -18 -56 -45 c-145 -120 -192 -163
-187 -172 4 -5 20 -9 37 -9 29 0 78 35 252 182 28 24 37 26 67 19 19 -5 70
-17 114 -26 44 -10 97 -23 119 -30 l38 -12 -123 -98 c-68 -54 -125 -104 -127
-111 -3 -10 7 -14 32 -14 29 0 53 14 142 86 164 132 145 125 272 98 128 -29
223 -52 228 -57 2 -2 -29 -30 -69 -63 -39 -32 -83 -68 -96 -79 -14 -11 -45
-38 -69 -60 l-44 -39 27 -9 c22 -8 35 -3 81 28 29 21 73 54 96 74 24 20 71 59
105 85 l62 48 110 -26 c61 -14 122 -31 136 -36 l27 -10 -64 -52 c-167 -138
-218 -182 -218 -190 0 -4 16 -8 36 -8 37 0 97 39 254 168 41 34 83 62 92 62
27 0 258 -49 258 -55 0 -1 -72 -60 -161 -131 -171 -137 -165 -135 -249 -109
-50 15 -101 28 -175 44 -93 20 -885 215 -2013 495 -255 63 -477 123 -492 133
-27 17 -307 207 -385 262 -33 23 -34 24 -17 47 15 22 24 24 87 23 39 -1 81 -5
95 -9z m3495 -65 c135 -27 164 -36 158 -51 -2 -7 -52 -50 -110 -96 -59 -46
-121 -96 -140 -112 -33 -28 -36 -29 -96 -19 -96 16 -227 47 -227 53 0 6 32 33
192 162 67 55 113 85 125 83 10 -2 54 -11 98 -20z m-1501 -17 c126 -28 118
-25 107 -47 -15 -27 -269 -235 -292 -239 -22 -4 -269 47 -282 58 -4 3 19 27
50 53 32 25 101 83 153 127 108 92 88 89 264 48z m-4324 -15 c-1 -10 -10 -63
-20 -118 -20 -99 -57 -318 -85 -490 -7 -49 -19 -142 -25 -205 -16 -167 -19
-180 -38 -172 -9 3 -49 27 -89 54 -40 26 -77 48 -82 48 -5 0 -11 4 -13 8 -1 4
-32 25 -68 46 -36 21 -99 60 -140 86 -41 26 -121 73 -176 104 -153 84 -149 80
-149 173 1 101 30 161 131 261 83 82 146 115 250 132 37 6 75 15 85 21 10 5
96 21 191 35 95 13 178 26 183 29 25 9 45 4 45 -12z m4737 -79 c62 -14 110
-31 107 -36 -5 -8 -189 -156 -277 -222 -37 -28 -38 -28 -100 -17 -114 22 -237
53 -237 60 0 8 45 46 196 167 125 100 108 97 311 48z m378 -85 c77 -17 146
-34 153 -38 9 -5 -35 -46 -131 -123 -79 -64 -152 -121 -163 -128 -15 -9 -48
-5 -178 25 -88 20 -163 38 -168 41 -18 11 309 266 332 259 8 -2 78 -18 155
-36z m405 -90 l139 -32 -63 -51 c-174 -140 -262 -206 -276 -206 -16 0 -182 34
-232 48 -15 4 -28 11 -28 15 -1 5 52 52 117 104 65 53 133 108 151 124 18 16
37 29 43 29 6 0 73 -14 149 -31z m-2548 -123 c167 -41 505 -125 752 -185 246
-61 452 -111 456 -111 5 0 21 -5 35 -10 l26 -10 -49 -58 c-27 -31 -69 -84 -93
-117 -44 -58 -47 -60 -103 -67 -52 -7 -64 -4 -121 24 -51 25 -65 36 -70 59 -9
41 -43 63 -127 84 -40 9 -121 42 -180 71 -104 52 -172 68 -180 43 -2 -6 -35 4
-83 26 -44 20 -103 42 -132 50 -66 17 -71 20 -233 128 -154 103 -216 147 -207
147 3 0 143 -33 309 -74z m2807 64 c20 -5 81 -19 135 -31 76 -17 96 -25 85
-33 -19 -14 -254 -198 -294 -230 l-30 -24 -129 32 -129 32 59 50 c33 27 75 62
94 77 19 15 64 52 100 81 36 30 67 55 69 55 2 1 20 -3 40 -9z m291 -85 c-7 -8
-10 -25 -6 -38 6 -25 -23 -69 -119 -184 -27 -33 -72 -88 -100 -123 -154 -194
-185 -213 -345 -202 -64 4 -103 11 -101 17 3 6 77 68 165 138 89 70 175 139
191 153 17 13 93 76 170 138 130 106 175 137 145 101z m247 -47 c36 -40 35
-46 -11 -114 -37 -53 -44 -69 -35 -85 5 -10 13 -19 17 -19 21 0 37 -54 43
-155 4 -60 12 -189 19 -285 12 -191 53 -499 75 -562 l13 -40 -29 6 c-17 3 -61
19 -100 36 -38 17 -120 44 -182 60 -149 38 -161 43 -185 82 -24 39 -67 174
-76 238 l-6 45 20 -25 c11 -14 44 -59 73 -100 29 -41 66 -94 83 -117 42 -60
92 -77 203 -70 47 3 94 8 103 12 45 18 31 59 -83 245 -104 170 -189 259 -264
276 -16 3 -45 15 -65 24 -19 10 -63 21 -97 25 -67 7 -75 13 -43 33 11 7 37 38
57 70 20 31 113 135 207 231 94 96 179 182 189 193 23 24 49 23 74 -4z m-1599
-362 l214 -53 -147 -6 -146 -7 -85 61 c-46 34 -84 63 -84 64 0 2 8 1 18 -1 9
-3 113 -29 230 -58z m798 -180 c-7 -27 -2 -29 147 -76 67 -22 100 -47 145
-112 15 -20 14 -21 -4 -14 -36 15 -89 26 -131 26 -30 0 -50 7 -72 26 -18 15
-50 28 -81 33 -29 5 -58 15 -67 24 -15 15 -15 16 12 105 3 6 16 12 31 12 23 0
25 -3 20 -24z m-5183 -58 c13 -14 22 -36 23 -58 1 -36 -9 -50 -38 -50 -15 0
-18 10 -18 65 0 36 2 65 5 65 3 0 15 -10 28 -22z m3361 -537 c-8 -8 -11 4 -17
59 l-5 55 13 -55 c8 -30 12 -56 9 -59z m1808 -18 c9 -10 23 -33 32 -50 l17
-33 -64 0 c-53 0 -67 4 -84 23 -24 26 -35 55 -27 68 10 17 110 10 126 -8z"/>
<path d="M8520 9991 c50 -8 165 -21 330 -37 112 -11 61 3 -70 20 -141 17 -355
31 -260 17z"/>
<path d="M7998 9953 c6 -2 18 -2 25 0 6 3 1 5 -13 5 -14 0 -19 -2 -12 -5z"/>
<path d="M9758 9793 c7 -3 16 -2 19 1 4 3 -2 6 -13 5 -11 0 -14 -3 -6 -6z"/>
<path d="M10048 9723 c7 -3 16 -2 19 1 4 3 -2 6 -13 5 -11 0 -14 -3 -6 -6z"/>
<path d="M10118 9703 c7 -3 16 -2 19 1 4 3 -2 6 -13 5 -11 0 -14 -3 -6 -6z"/>
<path d="M9091 9684 c0 -11 3 -14 6 -6 3 7 2 16 -1 19 -3 4 -6 -2 -5 -13z"/>
<path d="M9122 9670 c0 -14 2 -19 5 -12 2 6 2 18 0 25 -3 6 -5 1 -5 -13z"/>
<path d="M8883 9620 c0 -36 2 -50 4 -32 2 17 2 47 0 65 -2 17 -4 3 -4 -33z"/>
<path d="M6578 9663 c6 -2 18 -2 25 0 6 3 1 5 -13 5 -14 0 -19 -2 -12 -5z"/>
<path d="M6638 9663 c7 -3 16 -2 19 1 4 3 -2 6 -13 5 -11 0 -14 -3 -6 -6z"/>
<path d="M9332 9590 c0 -19 2 -27 5 -17 2 9 2 25 0 35 -3 9 -5 1 -5 -18z"/>
<path d="M9129 9433 l-1 -28 -8 25 -8 25 -1 -26 c-1 -15 5 -29 14 -33 12 -4
15 3 15 29 0 41 -10 47 -11 8z"/>
<path d="M9341 9383 c-1 -23 4 -33 13 -33 8 0 17 -8 19 -17 3 -10 5 5 4 32 0
28 -2 40 -4 28 -2 -13 -8 -23 -13 -23 -5 0 -11 10 -13 23 -3 16 -5 13 -6 -10z"/>
<path d="M9588 9330 c5 -35 32 -41 31 -7 0 21 -1 21 -9 2 -8 -18 -9 -17 -9 8
-1 15 -5 27 -9 27 -5 0 -7 -13 -4 -30z"/>
<path d="M10005 9290 c-4 -16 -12 -30 -18 -30 -6 0 -2 -6 9 -14 33 -25 9 -27
-80 -7 -103 23 -107 11 -4 -14 40 -9 81 -21 91 -26 15 -9 17 -3 17 56 0 71 -5
82 -15 35z"/>
<path d="M8902 9053 l-2 -221 28 -6 c15 -2 59 -10 97 -16 39 -6 78 -13 88 -15
15 -3 17 6 15 98 l-2 102 -3 -92 c-3 -80 -6 -93 -21 -93 -29 1 -173 28 -179
34 -3 3 -9 101 -13 218 l-7 213 -1 -222z"/>
<path d="M9592 9160 c0 -14 2 -19 5 -12 2 6 2 18 0 25 -3 6 -5 1 -5 -13z"/>
<path d="M8723 9113 c-15 -3 -23 -12 -23 -25 0 -11 -8 -27 -17 -34 -22 -15
-16 -22 25 -30 29 -6 31 -4 30 23 -1 16 4 39 11 51 6 12 8 21 4 21 -4 -1 -18
-4 -30 -6z"/>
<path d="M8703 8981 c1 -21 21 -22 40 -1 9 10 9 11 0 6 -7 -4 -13 -2 -13 3 0
6 -6 11 -14 11 -8 0 -14 -8 -13 -19z"/>
<path d="M9384 8710 c0 -157 2 -221 3 -142 2 78 2 206 0 285 -1 78 -3 14 -3
-143z"/>
<path d="M9351 8798 c-1 -119 -4 -158 -13 -158 -7 0 -50 8 -95 17 -81 17 -83
18 -83 47 0 36 -7 31 -12 -9 l-3 -30 105 -20 105 -21 8 58 c5 33 5 105 -1 166
l-9 107 -2 -157z"/>
<path d="M9147 8835 c3 -49 7 -92 9 -94 8 -8 3 105 -6 144 -6 28 -7 13 -3 -50z"/>
<path d="M9596 8628 c4 -128 8 -235 10 -237 2 -2 4 102 4 232 0 153 -4 237
-10 237 -7 0 -8 -78 -4 -232z"/>
<path d="M9621 8784 c0 -11 3 -14 6 -6 3 7 2 16 -1 19 -3 4 -6 -2 -5 -13z"/>
<path d="M10080 8680 c20 -13 33 -13 25 0 -3 6 -14 10 -23 10 -15 0 -15 -2 -2
-10z"/>
<path d="M10150 8660 c0 -5 7 -10 16 -10 8 0 12 5 9 10 -3 6 -10 10 -16 10 -5
0 -9 -4 -9 -10z"/>
<path d="M10075 8640 c3 -5 13 -10 21 -10 8 0 12 5 9 10 -3 6 -13 10 -21 10
-8 0 -12 -4 -9 -10z"/>
<path d="M10150 8620 c0 -6 7 -10 15 -10 8 0 15 2 15 4 0 2 -7 6 -15 10 -8 3
-15 1 -15 -4z"/>
<path d="M10070 8599 c0 -5 9 -9 20 -9 11 0 20 2 20 4 0 2 -9 6 -20 9 -11 3
-20 1 -20 -4z"/>
<path d="M10155 8570 c3 -5 10 -10 16 -10 5 0 9 5 9 10 0 6 -7 10 -16 10 -8 0
-12 -4 -9 -10z"/>
<path d="M10075 8550 c3 -5 13 -10 21 -10 8 0 12 5 9 10 -3 6 -13 10 -21 10
-8 0 -12 -4 -9 -10z"/>
<path d="M10150 8530 c0 -5 7 -10 16 -10 8 0 12 5 9 10 -3 6 -10 10 -16 10 -5
0 -9 -4 -9 -10z"/>
<path d="M10075 8510 c3 -5 14 -10 23 -10 15 0 15 2 2 10 -20 13 -33 13 -25 0z"/>
<path d="M7805 8500 c4 -6 11 -8 16 -5 14 9 11 15 -7 15 -8 0 -12 -5 -9 -10z"/>
<path d="M10150 8486 c0 -2 7 -6 15 -10 8 -3 15 -1 15 4 0 6 -7 10 -15 10 -8
0 -15 -2 -15 -4z"/>
<path d="M10080 8460 c19 -13 30 -13 30 0 0 6 -10 10 -22 10 -19 0 -20 -2 -8
-10z"/>
<path d="M10155 8440 c3 -5 11 -10 16 -10 6 0 7 5 4 10 -3 6 -11 10 -16 10 -6
0 -7 -4 -4 -10z"/>
<path d="M10075 8420 c3 -5 13 -10 21 -10 8 0 12 5 9 10 -3 6 -13 10 -21 10
-8 0 -12 -4 -9 -10z"/>
<path d="M10150 8400 c0 -5 7 -10 16 -10 8 0 12 5 9 10 -3 6 -10 10 -16 10 -5
0 -9 -4 -9 -10z"/>
<path d="M11112 8050 c0 -14 2 -19 5 -12 2 6 2 18 0 25 -3 6 -5 1 -5 -13z"/>
<path d="M6353 8553 c9 -2 23 -2 30 0 6 3 -1 5 -18 5 -16 0 -22 -2 -12 -5z"/>
<path d="M9638 7783 c7 -3 16 -2 19 1 4 3 -2 6 -13 5 -11 0 -14 -3 -6 -6z"/>
<path d="M11280 7201 c0 -12 5 -21 10 -21 6 0 10 6 10 14 0 8 -4 18 -10 21 -5
3 -10 -3 -10 -14z"/>
<path d="M6733 5986 c-18 -15 -35 -36 -38 -47 -4 -11 -37 -39 -73 -64 -64 -42
-100 -80 -88 -93 3 -3 14 2 24 11 10 10 24 17 31 17 7 0 25 8 39 18 48 33 58
37 38 14 -19 -22 -10 -32 11 -11 6 6 19 12 29 13 11 2 20 11 22 22 2 10 12 42
24 71 26 68 21 82 -19 49z"/>
<path d="M5987 3485 c-3 -18 1 -29 15 -36 13 -7 18 -19 16 -36 -2 -15 2 -28 8
-30 13 -4 24 28 24 70 0 15 7 30 15 33 29 12 14 24 -29 24 -39 0 -44 -3 -49
-25z"/>
</g>
</svg>
